<?xml version="1.0" standalone="yes"?>
<svg xmlns="http://www.w3.org/2000/svg" width="399" height="568">
<path style="fill:#feffff; stroke:none;" d="M0 0L0 219L116 219C118.117 243.28 132.815 269.086 142.694 291C159.124 327.444 173.017 362.934 176.83 403C179.474 430.784 172.447 460.61 161.573 486C158.839 492.383 148.709 515.126 138.603 505.258C136.046 502.761 136.644 497.236 136.804 494C137.249 485.021 137 475.99 137 467L137 357L0 356L0 568L103 568L130 568L140.486 566.972L144.568 557L154 543L164 549L164 550L147 568L399 568L399 357L262 357L262 507L236 507.938L195 538C210.663 518.25 227.106 498.055 237.691 475C265.059 415.39 260.134 349.463 237.947 289C222.272 246.285 195.1 208.599 187.435 163C181.91 130.128 185.449 96.0824 193.884 64C197.742 49.3292 205.795 34.9335 208 20L209 20L207 69L262 69L262 219L399 219L399 0L257 0L219 0C214.664 0 207.184 -1.41608 203.394 1.02777C196.711 5.33661 192.82 22.7304 190 30C176 19.6948 188.407 8.12817 200 1L181 0L141 0L0 0z"/>
<path style="fill:#2c738a; stroke:none;" d="M200 0C193.473 6.61725 171.525 21.817 190 29L202 0L200 0z"/>
<path style="fill:#4d666d; stroke:none;" d="M202 0L203 1L202 0M199 1L200 2L199 1M197 2L198 3L197 2M201 2L202 3L201 2M195 3L196 4L195 3M200 4L201 5L200 4M192 5L193 6L192 5M199 7L200 8L199 7M189 8L190 9L189 8M198 9L199 10L198 9M187 10L188 11L187 10M197 11L198 12L197 11M186 12L187 13L186 12M196.333 13.6667L196.667 14.3333L196.333 13.6667M185 14L186 15L185 14M184 16L185 17L184 16M195 16L196 17L195 16M183 18L184 19L183 18M194 18L195 19L194 18M208 20L208 27L209 27L208 20M181 21L181 24L182 24L181 21M193 21L194 22L193 21M192 23L193 24L192 23M182 24L183 25L182 24M183 25L184 26L183 25z"/>
<path style="fill:#2c738a; stroke:none;" d="M207 25C202.223 41.5054 195.315 57.1629 191.428 74C183.696 107.497 182.62 145.529 190.899 179C198.599 210.128 215.423 238.1 228.691 267C246.154 305.037 260.309 351.754 257.957 394C256.235 424.925 248.077 457.909 232.573 485C222.182 503.155 207.905 518.315 197 536C213.115 533.857 222.603 515.166 236 507.804C243.017 503.948 254.195 506 262 506L262 396L262 368C262 364.899 261.178 360.029 263.603 357.603C268.857 352.349 290.764 356 298 356L399 356L399 220L298 220C290.764 220 268.857 223.651 263.603 218.397C261.178 215.971 262 211.101 262 208L262 180L262 70L207 69C209.632 60.0953 212.264 32.7058 207 25z"/>
<path style="fill:#4d666d; stroke:none;" d="M184 26L185 27L184 26M191 26L192 27L191 26M206 26L207 27L206 26M186 27L187 28L186 27z"/>
<path style="fill:#56979b; stroke:none;" d="M176 28L160.909 41.0193L158 60L178 69L188 36L176 28z"/>
<path style="fill:#4d666d; stroke:none;" d="M190 28L191 29L190 28M189 29L190 30L189 29M205.333 29.6667L205.667 30.3333L205.333 29.6667z"/>
<path style="fill:#41a1a7; stroke:none;" d="M176 30L162.025 41.0587L159 59L178 67C181.038 53.8692 193.274 36.6448 176 30z"/>
<path style="fill:#4d666d; stroke:none;" d="M204 32L205 33L204 32M203.333 34.6667L203.667 35.3333L203.333 34.6667M202 37L203 38L202 37M201 40L202 41L201 40M200 42L201 43L200 42M208 42L209 43L208 42M199.333 45.6667L199.667 46.3333L199.333 45.6667M198 48L199 49L198 48M197.333 51.6667L197.667 52.3333L197.333 51.6667M196 54L197 55L196 54M195.333 58.6667L195.667 59.3333L195.333 58.6667M194 61L195 62L194 61M193 65L193 68L194 68L193 65M154 68L157 67L154 68z"/>
<path style="fill:#2c738a; stroke:none;" d="M143 100C149.468 102.055 156.322 104.414 163 105.624C172.91 107.421 173.326 99.2591 175.139 92C178.28 79.4199 172.686 66.3217 157.105 67.6466C153.302 67.97 153.211 72.273 150.502 74.0486C146.412 76.7285 142.718 73.0568 140.113 79.0193C137.164 85.7689 142.846 85.758 144.374 91.1042C145.139 93.7775 143.549 97.364 143 100z"/>
<path style="fill:#4d666d; stroke:none;" d="M158.667 67.3333L159.333 67.6667L158.667 67.3333M161 68L162 69L161 68M153 69L154 70L153 69M163.667 69.3333L164.333 69.6667L163.667 69.3333M192 69L193 70L192 69M209 69L209 70L262 70L245 69L209 69M166 70L167 71L166 70M152 71L153 72L152 71M168 71L169 72L168 71M171 72L172 73L171 72M173 73L174 74L173 73M191 73L192 74L191 73M142 74L143 75L142 74M146 74L147 75L146 74M151 74L152 75L151 74M175 74L177 76L177 74L175 74M141 75L142 76L141 75M148.667 75.3333L149.333 75.6667L148.667 75.3333M140 77L141 78L140 77M190 78L191 79L190 78M176.333 79.6667L176.667 80.3333L176.333 79.6667M139 80L140 81L139 80M262 80L262 126L263 126C263 112.996 267.01 91.9389 262 80M138 83L139 84L138 83M189.333 83.6667L189.667 84.3333L189.333 83.6667M138 85L139 86L138 85M139 86L140 87L139 86M141 87L142 88L141 87M143 88L144 89L143 88M188 88L189 89L188 88M145.333 90.6667L145.667 91.3333L145.333 90.6667M175 91L176 92L175 91M144 93L145 94L144 93M174 93L174 98L175 98L174 93M187 94L187 101L188 101L187 94M143 97L144 98L143 97M143.667 100.333L144.333 100.667L143.667 100.333M147 101L148 102L147 101M173 101L174 102L173 101M150 102L150 103L153 103L150 102M186 102L187 103L186 102M154 103L155 104L154 103M172 103L173 104L172 103M158.667 104.333L159.333 104.667L158.667 104.333M171 104L172 105L171 104M161 105L162 106L161 105M170 105L171 106L170 105M164 106L164 107L170 107L164 106z"/>
<path style="fill:#56979b; stroke:none;" d="M141 107C138.253 115.568 135.923 116.999 127 117L125 131L136 133L135 144L172 146L172 113L141 107z"/>
<path style="fill:#41a1a7; stroke:none;" d="M141 109C139.286 116.851 135.514 117.994 128 118L127 131C135.919 131.216 136.617 135.102 136 143L171 145L171 114L141 109z"/>
<path style="fill:#4d666d; stroke:none;" d="M185 112L185 146L186 146L185 112M185.333 147.667L185.667 148.333L185.333 147.667M135.667 151.333L136.333 151.667L135.667 151.333z"/>
<path style="fill:#2c738a; stroke:none;" d="M137.228 152.028C132.622 153.515 135.249 159.546 132.397 162.397C129.748 165.044 124.374 162.609 122.607 166.318C117.537 176.966 128.732 176.396 133.683 179.184C136.88 180.984 135.641 185.782 139.228 187.397C146.22 190.544 166.083 184.834 172.941 181.891C179.234 179.191 175.207 158.047 171.076 153.742C169.074 151.656 165.632 152.015 163 152.001C155.617 151.962 144.187 149.781 137.228 152.028z"/>
<path style="fill:#4d666d; stroke:none;" d="M138 151L138 152L169 152L138 151M170 152L171 153L170 152M134 153L135 154L134 153M172 153L172 157L173 157L172 153M186 156L187 157L186 156M173 158L174 159L173 158M187 158L187 164L188 164L187 158M131.667 163.333L132.333 163.667L131.667 163.333M122 164L123 165L122 164M174 164L174 168L175 168L174 164M188 168L189 169L188 168M175 169L176 170L175 169M189.333 171.667L189.667 172.333L189.333 171.667M122 172L123 173L122 172M176.333 175.667L176.667 176.333L176.333 175.667M123 177L123 179L125 179L123 177M190 177L191 178L190 177M126 178L126 179L129 179L126 178M131.667 178.333L132.333 178.667L131.667 178.333M135 179L135 182L136 182L135 179M176.667 180.333L177.333 180.667L176.667 180.333M175 181L176 182L175 181M191 181L192 182L191 181M170.667 182.333L171.333 182.667L170.667 182.333M168 183L169 184L168 183M160 184L160 185L164 185L160 184M192 184L193 185L192 184M136 185L137 186L136 185M158 185L159 186L158 185M150 186L150 187L154 187L150 186M193 186L193 189L194 189L193 186M137 187L140 189L140 188L137 187M148 187L149 188L148 187z"/>
<path style="fill:#56979b; stroke:none;" d="M138 196C138.398 199.079 140.268 203.796 138.802 206.722C137.051 210.214 132.186 209.627 129.618 212.086C126.298 215.266 129.906 224.823 133 227C131.582 223.717 128.721 217.865 130.328 214.278C131.764 211.072 136.242 211.211 138.678 209.157C142.178 206.206 139.956 200.694 139 197C149.713 195.639 165.413 187.327 175.892 189.408C180.785 190.38 188.464 211.423 185.303 215.301C178.651 223.461 158.501 227.386 149 232C145.126 223.332 143.051 222.057 134 225L134 226L144 223L148 233L189 216L179 187L138 196z"/>
<path style="fill:#41a1a7; stroke:none;" d="M139 197C139.788 201.068 141.786 206.16 137.837 209.157C135.588 210.863 131.657 210.942 130.118 213.51C128.265 216.603 130.948 222.898 132 226C142.07 223.251 143.381 222.93 149 232C157.853 228.938 166.387 224.69 175 220.999C178.065 219.686 184.003 218.188 185.932 215.301C188.516 211.434 181.232 190.545 176.775 189.333C166.896 186.645 149.062 195.104 139 197z"/>
<path style="fill:#4d666d; stroke:none;" d="M194 191L195 192L194 191M195.333 193.667L195.667 194.333L195.333 193.667M196 197L197 198L196 197M197 199L198 200L197 199M198 202L199 203L198 202M199.333 204.667L199.667 205.333L199.333 204.667M200 207L201 208L200 207M201.333 209.667L201.667 210.333L201.333 209.667M202 212L203 213L202 212M203 214L204 215L203 214M204 216L205 217L204 216M205 218L206 219L205 218z"/>
<path style="fill:#56979b; stroke:none;" d="M0 219L0 220L115 220C119.039 247.451 134.408 274.96 145.694 300C165.213 343.302 181.135 388.851 174.271 437C171.558 456.033 166.556 476.082 157.138 493C154.145 498.377 149.06 508.784 141.148 505.396C137.648 503.897 137.673 499.241 137.71 496C137.811 487.002 138 478.007 138 469L138 390C138 381.656 141.086 365.816 137.397 358.318C135.95 355.378 131.704 356.006 129 356L104 356C69.4235 355.987 34.6611 355 0 355L0 356L137 357L137 466C137 474.605 137.548 483.422 136.834 492C136.532 495.623 135.5 502.164 138.027 505.258C147.448 516.791 159.109 492.751 161.573 487C172.742 460.921 179.543 430.504 176.83 402C173.042 362.19 159.188 327.298 143.14 291C133.112 268.32 119.647 243.787 116 219L0 219z"/>
<path style="fill:#4d666d; stroke:none;" d="M263 219L263 220L399 220C388.258 215.493 369.682 219 358 219L263 219z"/>
<path style="fill:#41a1a7; stroke:none;" d="M0 220L0 355C34.3279 355 68.7567 355.987 103 356L128 356C130.946 356.006 135.081 355.484 136.972 358.318C141.169 364.607 138 381.533 138 389L138 470C138 478.959 137.233 488.09 137.455 497C137.521 499.626 137.596 504.062 140.318 505.397C148.982 509.646 154.482 498.958 157.691 493C167.031 475.657 171.935 455.385 174.575 436C185.543 355.46 132.07 294.461 115 220L0 220z"/>
<path style="fill:#4d666d; stroke:none;" d="M188 221L188 222L192 223L192 222L188 221M206 221L207 222L206 221M186 222L187 223L186 222z"/>
<path style="fill:#2c738a; stroke:none;" d="M148 270L161 264L165 272C171.853 270.026 178.047 266.19 184 262.344C188.875 259.195 200.339 255.121 202.867 249.787C205.039 245.206 194.002 223.087 188.895 222.531C185.874 222.202 182.577 224.469 180 225.753C173.073 229.205 157.365 233.105 153.042 239.637C150.753 243.098 154.643 247.191 152.879 250.79C151.231 254.151 146.833 254.774 144.647 257.61C141.874 261.206 146.155 266.839 148 270z"/>
<path style="fill:#4d666d; stroke:none;" d="M184 223L185 224L184 223M207 223L208 224L207 223M182 224L183 225L182 224M192 224L193 225L192 224M180 225L181 226L180 225M208 225L209 226L208 225M178 226L179 227L178 226M193 226L194 227L193 226M176 227L177 228L176 227M209 227L210 228L209 227M174 228L175 229L174 228M194 228L195 229L194 228M172 229L173 230L172 229M210 229L211 230L210 229M170 230L171 231L170 230M195 230L196 231L195 230M167.667 231.333L168.333 231.667L167.667 231.333M211 231L212 232L211 231M165 232L166 233L165 232M196 232L197 233L196 232M163 233L164 234L163 233M212 233L213 234L212 233M161 234L162 235L161 234M197 234L198 235L197 234M159 235L160 236L159 235M213 235L214 236L213 235M157 236L158 237L157 236M198 236L199 237L198 236M155 237L156 238L155 237M214 237L215 238L214 237M153 238L154 239L153 238M199 238L200 239L199 238M151.333 239.667L151.667 240.333L151.333 239.667M215 239L216 240L215 239M200 240L201 241L200 240M216 241L217 242L216 241M201 242L202 243L201 242M217 243L218 244L217 243M152 244L153 245L152 244M202 244L203 245L202 244M218 245L219 246L218 245M203 246L204 247L203 246M153.333 247.667L153.667 248.333L153.333 247.667M219 247L220 248L219 247M204.333 248.667L204.667 249.333L204.333 248.667M220 249L221 250L220 249M203 250L204 251L203 250M221 251L222 252L221 251M152 252L153 253L152 252M200 252L201 253L200 252M150 253L151 254L150 253M198 253L199 254L198 253M222 253L223 254L222 253M196 254L197 255L196 254M147 255L148 256L147 255M194 255L195 256L194 255M223 255L224 256L223 255M145 256L146 257L145 256M193 256L194 257L193 256z"/>
<path style="fill:#56979b; stroke:none;" d="M172 289L160 295L165 307L178 301L181 310L224 291L209 256L180 271.939L169.708 279.379L172 289z"/>
<path style="fill:#4d666d; stroke:none;" d="M143 257L144 258L143 257M142 258L143 259L142 258M190 258L191 259L190 258z"/>
<path style="fill:#41a1a7; stroke:none;" d="M182 308C188.946 306.014 195.394 302.458 202 299.576C206.733 297.51 218.364 294.304 220.879 289.61C223.551 284.621 212.992 260.453 207.671 258.708C204.49 257.665 200.584 260.507 198 262.012C191.323 265.899 174.643 272.459 171.132 279.379C169.716 282.17 172.32 285.033 171.444 287.895C169.79 293.294 160.604 292.778 162.672 299.985C165.195 308.773 171.752 300.413 176.867 301.665C179.559 302.324 180.793 305.845 182 308z"/>
<path style="fill:#4d666d; stroke:none;" d="M224 258L225 259L224 258M188 259L189 260L188 259M186 260L187 261L186 260M225 260L226 261L225 260M143 261L144 262L143 261M185 261L186 262L185 261M183 262L184 263L183 262M226 262L227 263L226 262M144 263L145 264L144 263M182 263L183 264L182 263M159 264L160 265L159 264M180 264L181 265L180 264M227 264L228 265L227 264M145 265L146 266L145 265M157 265L158 266L157 265M161 265L162 266L161 265M155 266L156 267L155 266M177 266L178 267L177 266M228 266L229 267L228 266M146 267L147 268L146 267M162 267L163 268L162 267M175 267L176 268L175 267M152 268L153 269L152 268M173 268L174 269L173 268M229.333 268.667L229.667 269.333L229.333 268.667M147 269L148 270L147 269M150 269L151 270L150 269M163 269L164 270L163 269M171 269L172 270L171 269M148 270L149 271L148 270M169 270L170 271L169 270M164 271L165 272L164 271M167 271L168 272L167 271M230 271L231 272L230 271M165 272L166 273L165 272M231 273L232 274L231 273M232 275L233 276L232 275M233 277L234 278L233 277M234 280L235 281L234 280M235 282L236 283L235 282M236 285L237 286L236 285M237 287L238 288L237 287M238 290L239 291L238 290M239 293L240 294L239 293M240 296L241 297L240 296M225 297L225 298L228 299L225 297M222 298L223 299L222 298z"/>
<path style="fill:#2c738a; stroke:none;" d="M178 341C181.466 340.533 186.391 338.105 189.786 338.928C195.872 340.405 193.762 347.088 202 344.845C210.149 342.626 228.516 340.399 234.393 334.272C238.804 329.673 230.846 311.462 229.178 306C228.502 303.785 228.24 299.625 225.683 298.708C221.351 297.155 212.905 302.934 209 304.694C203.254 307.285 190.616 310.131 187.032 315.498C185.026 318.502 187.983 322.18 186.049 325.061C180.498 333.326 174.508 328.722 178 341z"/>
<path style="fill:#4d666d; stroke:none;" d="M241 298L242 299L241 298M220 299L221 300L220 299M218 300L219 301L218 300M216 301L217 302L216 301M213 302L214 303L213 302M228 302L228 305L229 305L228 302M242 302L243 303L242 302M211 303L212 304L211 303M209 304L210 305L209 304M243.333 304.667L243.667 305.333L243.333 304.667M206.667 305.333L207.333 305.667L206.667 305.333M204 306L205 307L204 306M229 306L230 307L229 306M202 307L203 308L202 307M200 308L201 309L200 308M244 308L245 309L244 308M197.667 309.333L198.333 309.667L197.667 309.333M230.333 309.667L230.667 310.333L230.333 309.667M195 310L196 311L195 310M193 311L194 312L193 311M245.333 311.667L245.667 312.333L245.333 311.667M191 312L192 313L191 312M188.667 313.333L189.333 313.667L188.667 313.333M231 313L232 314L231 313M186 314L187 315L186 314M185 315L185 319L186 319L185 315M246 315L247 316L246 315M232.333 317.667L232.667 318.333L232.333 317.667M247 317L247 320L248 320L247 317M233 320L234 321L233 320M186 321L187 322L186 321M187 323L188 324L187 323M248 323L249 324L248 323M234 324L234 327L235 327L234 324M185 326L186 327L185 326M249.333 326.667L249.667 327.333L249.333 326.667M182.667 327.333L183.333 327.667L182.667 327.333M180 328L181 329L180 328M235 328L236 329L235 328M178 329L179 330L178 329M176 330L177 331L176 330M174.667 331.333L175.333 331.667L174.667 331.333M236 331L235 335L236 331M250 331L251 332L250 331M251 333L251 337L252 337L251 333M175 334L176 335L175 334M233 335L234 336L233 335M176 336L177 337L176 336M229.667 336.333L230.333 336.667L229.667 336.333M226 337L227 338L226 337M177.333 338.667L177.667 339.333L177.333 338.667M188 338L189 339L188 338M191 338L192 339L191 338M223 338L224 339L223 338M185 339L186 340L185 339M220 339L221 340L220 339M181.667 340.333L182.333 340.667L181.667 340.333M192 340L193 341L192 340M215 340L215 341L218 341L215 340M178.667 341.333L179.333 341.667L178.667 341.333M213 341L214 342L213 341M193.333 342.667L193.667 343.333L193.333 342.667M209.667 342.333L210.333 342.667L209.667 342.333z"/>
<path style="fill:#56979b; stroke:none;" d="M196 353L197 362L198 362L197 354L239 343L242 382L202 385C201.046 374.522 194.096 379.914 188.6 374.401C184.944 370.733 188.099 366.719 192.004 365.544C193.991 364.946 196.018 364.628 198 364L198 363L185 367C186.832 376.719 190.237 377.799 200 378L201 386L244 383L240 342L196 353z"/>
<path style="fill:#4d666d; stroke:none;" d="M252 342L253 343L252 342M207 343L208 344L207 343z"/>
<path style="fill:#41a1a7; stroke:none;" d="M197 354C197.542 356.931 198.785 360.946 196.396 363.4C193.048 366.84 185.734 364.808 187.037 371.946C188.426 379.551 200.382 374.851 202 385L242 382L239 343L197 354z"/>
<path style="fill:#4d666d; stroke:none;" d="M202.667 344.333L203.333 344.667L202.667 344.333M194 345L195 346L194 345M200 345L201 346L200 345M253 345L253 348L254 348L253 345M195 346L195 347L198 347L195 346M254 354L255 355L254 354M263 356L263 357L399 357C388.258 352.493 369.682 356 358 356L263 356M255 357L256 358L255 357M255 363L256 364L255 363M262 374L262 484L263 484L263 407L262 374M256 375L257 376L256 375M257 377L257 399L258 399L257 377M202 394C213.888 388.962 231.205 392 244 392C236.385 388.805 207.79 388.088 202 394z"/>
<path style="fill:#2c738a; stroke:none;" d="M190 402L190 412C197.953 412.028 202.591 414.511 200 423L237 432L244 392L206.059 392.318L200.397 400.258L190 402z"/>
<path style="fill:#4d666d; stroke:none;" d="M243 395L244 396L243 395M242 398L242 402L243 402L242 398M201 400L202 401L201 400M256 400L257 401L256 400M190 401L190 402L200 402L190 401M189 408L189 412L190 412L189 408M241 408L242 409L241 408M240 411L241 412L240 411M193 412L193 413L199 413L193 412M255 413L256 414L255 413M240 414L241 415L240 414M201 415L201 419L202 419L201 415M254 419L255 420L254 419M200 421L201 422L200 421M239 421L240 422L239 421M200 423L201 424L200 423M238 423L238 428L239 428L238 423M204 424L204 425L207 425L204 424M208 425L209 426L208 425M213.667 426.333L214.333 426.667L213.667 426.333M253 426L253 429L254 429L253 426M217 427L218 428L217 427M222 428L222 429L225 429L222 428M226 429L227 430L226 429z"/>
<path style="fill:#56979b; stroke:none;" d="M200 430L197 439L186 436L184 448L194 452L194 451C186.32 447.484 186.375 444.936 187 437C195.445 440.337 198.136 439.777 201 431C208.315 433.313 229.187 433.161 232.458 441.681C235.606 449.882 223.27 466.122 221 474C209.954 471.375 192.326 465.662 194 453L193 453L191 462L221 476L235 440C224.466 433.875 211.977 431.522 200 430z"/>
<path style="fill:#4d666d; stroke:none;" d="M230 430L230 431L234 431L230 430z"/>
<path style="fill:#41a1a7; stroke:none;" d="M201 431C197.299 439.29 195.595 439.485 187 437C185.741 446.961 189.003 445.027 192.882 452.343C194.435 455.273 191.814 458.695 193.777 461.529C197.86 467.426 214.162 472.975 221 474C223.802 467.27 236.849 447.424 232.212 440.394C227.212 432.812 208.986 432.967 201 431z"/>
<path style="fill:#4d666d; stroke:none;" d="M235 431L236 432L235 431M237 431L238 432L237 431M252 431L253 432L252 431M251.333 435.667L251.667 436.333L251.333 435.667M250 439L251 440L250 439M249.333 443.667L249.667 444.333L249.333 443.667M248 446L249 447L248 446M247.333 449.667L247.667 450.333L247.333 449.667M246 452L247 453L246 452M245 455L246 456L245 455M244 458L245 459L244 458M243 461L244 462L243 461M242 463L243 464L242 463M241 466L242 467L241 466M189 468L188 470L189 468M240 468L241 469L240 468z"/>
<path style="fill:#2c738a; stroke:none;" d="M189 469C187.963 471.167 186.967 474.664 184.606 475.763C180.387 477.728 175.778 473.688 174.913 481.005C174.473 484.727 177.521 486.708 178.447 490C179.303 493.042 176.972 495.9 177.789 498.895C178.913 503.019 191.769 510.999 195.96 510.176C204.322 508.533 213.663 489.496 215 482L189 469z"/>
<path style="fill:#4d666d; stroke:none;" d="M191 469L192 470L191 469M194 470L195 471L194 470M239 470L240 471L239 470M187.333 471.667L187.667 472.333L187.333 471.667M196 471L197 472L196 471M198 472L199 473L198 472M177 473L177 475L179 475L177 473M200 473L201 474L200 473M238 473L239 474L238 473M186 474L187 475L186 474M202 474L203 475L202 474M176 475L177 476L176 475M180 475L181 476L180 475M204 475L205 476L204 475M237 475L238 476L237 475M182 476L183 477L182 476M185 476L186 477L185 476M207 477L208 478L207 477M236 477L237 478L236 477M175 478L176 479L175 478M209 478L210 479L209 478M210 479L211 480L210 479M235 479L236 480L235 479M212 480L213 481L212 480M174 481L175 482L174 481M213 481L214 482L213 481M234 481L235 482L234 481M215.333 482.667L215.667 483.333L215.333 482.667M233 483L234 484L233 483M174 484L175 485L174 484M175 485L176 486L175 485M214 485L215 486L214 485M232 485L233 486L232 485M262.333 485.667L262.667 486.333L262.333 485.667M176 486L177 487L176 486M231 486L232 487L231 486M177 487L178 488L177 487M213 487L214 488L213 487M178 488L179 489L178 488M230 488L231 489L230 488M212 489L213 490L212 489M229 490L230 491L229 490M179 491L180 492L179 491M211 491L212 492L211 491M210 492L211 493L210 492M178 493L179 494L178 493M227 493L228 494L227 493M209 494L210 495L209 494M177.333 495.667L177.667 496.333L177.333 495.667M208 496L209 497L208 496M225 496L226 497L225 496M176.333 498.667L176.667 499.333L176.333 498.667M224 498L225 499L224 498M206 499L207 500L206 499M177 500L178 501L177 500M205 500L206 501L205 500M223 500L224 501L223 500M204 501L205 502L204 501M222 501L223 502L222 501M180 502L181 503L180 502M182 503L183 504L182 503M203 503L204 504L203 503M221 503L222 504L221 503M184 504L185 505L184 504M202 504L203 505L202 504z"/>
<path style="fill:#56979b; stroke:none;" d="M172 505L167 514L172 507C176.116 508.708 187.322 513.486 188.462 518.185C189.843 523.874 173.274 541.811 168 541.412C156.237 540.522 160.32 519.972 163 513L166 514L163 511C159.14 517.647 153.992 545.256 169 543.093C177.786 541.827 188.508 524.382 192 517L172 505z"/>
<path style="fill:#4d666d; stroke:none;" d="M185 505L186 506L185 505M219 505L220 506L219 505M187 506L188 507L187 506M200 506L201 507L200 506M237 506L237 507L262 507L237 506z"/>
<path style="fill:#41a1a7; stroke:none;" d="M172 507C169.86 511.074 167.773 513.401 163 513C160.599 517.582 160.452 520.68 160.966 525.714C161.317 529.153 158.56 533.491 160.132 536.625C161.571 539.495 166.778 542.951 170 541.825C175.187 540.011 190.301 524.386 189.119 518.185C188.18 513.265 176.32 508.112 172 507z"/>
<path style="fill:#4d666d; stroke:none;" d="M188 507L189 508L188 507M190 508L191 509L190 508M217 508L218 509L217 508M234 508L235 509L234 508M191 509L192 510L191 509M198 509L199 510L198 509M216 509L217 510L216 509M233 509L234 510L233 509M193 510L194 511L193 510M197 510L198 511L197 510M231 510L232 511L231 510M195.667 511.333L196.333 511.667L195.667 511.333M215 511L216 512L215 511M230 511L231 512L230 511M229 512L230 513L229 512M213 513L214 514L213 513M228 513L229 514L228 513M227 514L228 515L227 514M212 515L213 516L212 515M226 515L227 516L226 515M211 516L212 517L211 516M225 516L226 517L225 516M210 517L211 518L210 517M222 518L223 519L222 518M209 519L210 520L209 519M208 520L209 521L208 520M220 520L221 521L220 520M207 521L208 522L207 521M206 522L207 523L206 522M218 522L219 523L218 522M205 524L206 525L205 524M216 524L217 525L216 524M204 525L205 526L204 525M213 526L214 527L213 526M202 527L203 528L202 527M212 527L213 528L212 527M211 528L212 529L211 528M201 529L202 530L201 529M210 529L211 530L210 529M200 530L201 531L200 530M208 530L209 531L208 530M207 531L208 532L207 531M199 532L200 533L199 532M205 532L206 533L205 532M198 533L199 534L198 533M204 533L205 534L204 533M197 534L198 535L197 534M202 534L203 535L202 534M201 535L202 536L201 535M195 537L195 538L200 537L195 537M153 545L156 544L153 545z"/>
<path style="fill:#2c738a; stroke:none;" d="M142 568C147.488 567.568 163.396 555.332 161.553 548.954C158.096 536.991 146.513 552.631 144.637 557C143.166 560.428 142.495 564.328 142 568z"/>
<path style="fill:#4d666d; stroke:none;" d="M157 544L158 545L157 544M159 545L160 546L159 545M160 546L161 547L160 546M151 547L152 548L151 547M161 547L162 548L161 547M162 548L163 549L162 548M149 549L150 550L149 549M163 549L164 550L163 549M162 550L163 551L162 550M147 552L148 553L147 552M160 552L161 553L160 552M146 553L147 554L146 553M145 554L146 555L145 554M159 554L160 555L159 554M158 555L159 556L158 555M144 556L145 557L144 556M157 556L158 557L157 556M156 557L157 558L156 557M155 558L156 559L155 558M143.333 559.667L143.667 560.333L143.333 559.667M154 559L155 560L154 559M151 562L152 563L151 562M150 563L151 564L150 563M142 564L143 565L142 564M149 564L150 565L149 564M148 565L149 566L148 565M147 566L148 567L147 566M141 567L142 568L141 567z"/>
</svg>
